[img]http://img189.imageshack.us/img189/6950/arthurd.jpg[/img]
[code]
Arthur Christmas 2011 DVDSCR XviD AC3-26K

Imdb: 
http://www.imdb.com/title/tt1430607/

Plot:
On Christmas night at the North Pole, Santa's youngest son looks to use his father's high-tech operation 

for an urgent mission.

Sources:
Arthur.Christmas.2011.Read.Nfo.NTSC.DVDSCR.DVDR-JKR-THNXS!!!!!!!!!!!!!

Notes:
WOW A DVDSCR!!! WELL ADDED A FEW FILTERS TO THE VIDEO TO MAKE IT LOOK NICE!!
:p ENJOY!

Greetz:
Xtreme 

Encode|FYA|ILLUMANTI|CM8|RX|VISION|HDSCENE|NIGHTMAREZ|xTriLL|DTRG|CRYS|REMIXHD|BIDA|RX|REFILL|INSPiRAL|SI

C
To all the people who have helped me :P you know who you are

Anything to offer email us @: 26k@hushmail.me

Video
ID                                       : 0
Format                                   : MPEG-4 Visual
Format profile                           : Advanced Simple@L5
Format settings, BVOP                    : 1
Format settings, QPel                    : No
Format settings, GMC                     : No warppoints
Format settings, Matrix                  : Custom
Codec ID                                 : XVID
Codec ID/Hint                            : XviD
Duration                                 : 1h 37mn
Bit rate                                 : 1 840 Kbps
Width                                    : 720 pixels
Height                                   : 400 pixels
Display aspect ratio                     : 16:9
Frame rate                               : 23.976 fps
Color space                              : YUV
Chroma subsampling                       : 4:2:0
Bit depth                                : 8 bits
Scan type                                : Progressive
Compression mode                         : Lossy
Bits/(Pixel*Frame)                       : 0.266
Stream size                              : 1.25 GiB (80%)
Writing library                          : XviD 64

Audio
ID                                       : 1
Format                                   : AC-3
Format/Info                              : Audio Coding 3
Mode extension                           : CM (complete main)
Codec ID                                 : 2000
Duration                                 : 1h 37mn
Bit rate mode                            : Constant
Bit rate                                 : 448 Kbps
Channel(s)                               : 6 channels
Channel positions                        : Front: L C R, Side: L R, LFE
Sampling rate                            : 48.0 KHz
Bit depth                                : 16 bits
Compression mode                         : Lossy
Stream size                              : 312 MiB (20%)
Alignment                                : Split accross interleaves
Interleave, duration                     : 96 ms (2.30 video frames)
Interleave, preload duration             : 96 ms
Language                                 : English

[/code]
Screens:
[img]http://img819.imageshack.us/img819/1673/vlcsnap2012011619h01m30.png[/img]
[img]http://img716.imageshack.us/img716/6930/vlcsnap2012011619h01m35.png[/img]
[img]http://img202.imageshack.us/img202/6351/vlcsnap2012011619h01m44.png[/img]
[img]http://img715.imageshack.us/img715/9030/vlcsnap2012011619h01m49.png[/img]
[img]http://img205.imageshack.us/img205/7569/vlcsnap2012011619h02m03.png[/img]

[img]http://img851.imageshack.us/img851/5503/26ks.jpg[/img]
Thank you smallz for banner!